<svg xmlns="http://www.w3.org/2000/svg" version="1.1" xmlns:xlink="http://www.w3.org/1999/xlink" width="200" height="200"><svg xmlns="http://www.w3.org/2000/svg" version="1.1" xmlns:xlink="http://www.w3.org/1999/xlink" viewBox="0 0 200 200"><rect width="200" height="200" fill="url('#gradient')"></rect><defs><linearGradient id="SvgjsLinearGradient1001" gradientTransform="rotate(72 0.5 0.5)"><stop offset="0%" stop-color="#c931da"></stop><stop offset="100%" stop-color="#091a34"></stop></linearGradient></defs><g><g fill="#ffffff" transform="matrix(2.334536572126476,0,0,2.334536572126476,13.493082372817732,117.27791387465062)" stroke="#002ef4" stroke-width="0.75"><path d="M12.95-14.22L12.95 0L9.54 0L4.50-8.85L4.50 0L1.07 0L1.07-14.22L4.50-14.22L9.53-5.37L9.53-14.22L12.95-14.22ZM14.56-4.82L14.55-5.38Q14.55-6.96 15.17-8.20Q15.78-9.43 16.93-10.10Q18.09-10.76 19.64-10.76L19.64-10.76Q22.01-10.76 23.38-9.29Q24.75-7.82 24.75-5.29L24.75-5.29L24.75-5.18Q24.75-2.71 23.37-1.25Q22.00 0.20 19.66 0.20L19.66 0.20Q17.40 0.20 16.04-1.16Q14.67-2.51 14.56-4.82L14.56-4.82ZM17.85-5.77L17.84-5.18Q17.84-3.71 18.30-3.03Q18.76-2.34 19.66-2.34L19.66-2.34Q21.42-2.34 21.46-5.05L21.46-5.05L21.46-5.38Q21.46-8.22 19.64-8.22L19.64-8.22Q17.99-8.22 17.85-5.77L17.85-5.77ZM25.78-5.36L25.78-5.36Q25.78-7.87 26.87-9.32Q27.95-10.76 29.89-10.76L29.89-10.76Q31.31-10.76 32.28-9.65L32.28-9.65L32.28-15L35.58-15L35.58 0L32.62 0L32.45-1.13Q31.44 0.20 29.87 0.20L29.87 0.20Q27.99 0.20 26.88-1.25Q25.78-2.70 25.78-5.36ZM29.08-5.76L29.07-5.16Q29.07-2.34 30.71-2.34L30.71-2.34Q31.81-2.34 32.28-3.26L32.28-3.26L32.28-7.29Q31.83-8.22 30.73-8.22L30.73-8.22Q29.21-8.22 29.08-5.76L29.08-5.76ZM42.56 0.20L42.56 0.20Q40.13 0.20 38.62-1.25Q37.12-2.71 37.12-5.03L37.12-5.03L37.12-5.30Q37.12-6.92 37.72-8.16Q38.32-9.40 39.47-10.08Q40.63-10.76 42.21-10.76L42.21-10.76Q44.43-10.76 45.72-9.38Q47.01-8.00 47.01-5.53L47.01-5.53L47.01-4.25L40.47-4.25Q40.64-3.36 41.24-2.85Q41.84-2.34 42.78-2.34L42.78-2.34Q44.35-2.34 45.22-3.44L45.22-3.44L46.73-1.66Q46.11-0.81 44.99-0.31Q43.86 0.20 42.56 0.20ZM42.19-8.22L42.19-8.22Q40.74-8.22 40.47-6.31L40.47-6.31L43.79-6.31L43.79-6.56Q43.81-7.35 43.39-7.79Q42.97-8.22 42.19-8.22ZM54.10-4.82L51.91-4.82L51.91 0L48.49 0L48.49-14.22L54.16-14.22Q55.79-14.22 57.05-13.62Q58.30-13.02 58.99-11.91Q59.68-10.80 59.68-9.39L59.68-9.39Q59.68-7.31 58.19-6.07Q56.70-4.82 54.10-4.82L54.10-4.82ZM51.91-11.57L51.91-7.47L54.16-7.47Q55.16-7.47 55.68-7.97Q56.20-8.47 56.20-9.38L56.20-9.38Q56.20-10.37 55.66-10.97Q55.13-11.56 54.20-11.57L54.20-11.57L51.91-11.57ZM69.60-4.81L73.01-4.81Q72.94-3.33 72.21-2.19Q71.47-1.05 70.15-0.43Q68.83 0.20 67.13 0.20L67.13 0.20Q64.33 0.20 62.71-1.63Q61.10-3.46 61.10-6.79L61.10-6.79L61.10-7.49Q61.10-9.58 61.83-11.15Q62.56-12.71 63.93-13.57Q65.29-14.42 67.09-14.42L67.09-14.42Q69.68-14.42 71.25-13.06Q72.82-11.70 73.04-9.31L73.04-9.31L69.62-9.31Q69.58-10.61 68.96-11.17Q68.35-11.74 67.09-11.74L67.09-11.74Q65.81-11.74 65.21-10.78Q64.62-9.82 64.59-7.72L64.59-7.72L64.59-6.72Q64.59-4.44 65.16-3.47Q65.73-2.49 67.13-2.49L67.13-2.49Q68.31-2.49 68.94-3.05Q69.56-3.60 69.60-4.81L69.60-4.81Z"></path></g></g></svg><style>@media (prefers-color-scheme: light) { :root { filter: none; } }
@media (prefers-color-scheme: dark) { :root { filter: none; } }
</style></svg>